<svg width="195" height="195" viewBox="0 0 195 195" fill="none" xmlns="http://www.w3.org/2000/svg">
<circle cx="97.5" cy="97.5" r="97.5" fill="black"/>
<path fill-rule="evenodd" clip-rule="evenodd" d="M128.994 62L119.683 95.8021L119.696 95.8051L109.723 132H94.6227L76.1227 62H89.8227L102.423 117.7L117.223 62H128.994ZM134.617 74.7402L128.518 96.8824L137.923 132H153.123L172.123 62H158.323L145.723 117.7L134.617 74.7402ZM29.1 127.5C33.2333 131.3 38.7 133.2 45.5 133.2C52.0333 133.2 57.2 131.367 61 127.7C64.8667 123.967 66.8 118.667 66.8 111.8V62H54V111.8C54 114.8 53.3 117.233 51.9 119.1C50.5 120.9 48.2667 121.8 45.2 121.8C41.9333 121.8 39.5667 120.833 38.1 118.9C36.6333 116.967 35.8667 114.367 35.8 111.1H23C23 118.167 25.0333 123.633 29.1 127.5Z" fill="white"/>
</svg>
