<svg width="186" height="84" viewBox="0 0 186 84" fill="none" xmlns="http://www.w3.org/2000/svg">
<path d="M28.05 83.0667C19.5727 83.0667 12.7575 80.85 7.60467 76.4167C2.53488 71.9055 0 65.5278 0 57.2833H15.9573C16.0405 61.0945 16.9962 64.1278 18.8247 66.3833C20.6531 68.6389 23.6035 69.7667 27.676 69.7667C31.4991 69.7667 34.2833 68.7167 36.0287 66.6167C37.774 64.4389 38.6467 61.6 38.6467 58.1V0H54.604V58.1C54.604 66.1112 52.1938 72.2945 47.3733 76.65C42.636 80.9278 36.1948 83.0667 28.05 83.0667ZM89.2896 81.6667L66.2263 0H83.3056L99.0136 64.9833L117.464 0H135.043L152.995 64.9833L168.703 0H185.907L162.22 81.6667H143.271L125.942 21.1167L108.114 81.6667H89.2896Z" fill="white"/>
</svg>
